# xmcd
#
# Track frame offsets:
#	150
#	11453
#	21510
#	31392
#	43531
#	56320
#	67143
#	80677
#	92432
#	105584
#	118699
#	132695
#	144311
#	157271
#	168623
#	181651
#	193093
#	203194
#	216366
#	227526
#
# Disc length: 3181 seconds
#
# Revision: 3
# Processed by: cddbd v1.5.2PL0 Copyright (c) Steve Scherf et al.
# Submitted via: EasyCDDAExtractor 15.3.0.1
#
DISCID=1d0c6b14
DTITLE=The Sons of the Pioneers - Down Memory Trail with_
DYEAR=1900
DGENRE=Western
TTITLE0=Tumbling Tumbleweeds
TTITLE1=San Antonio Rose
TTITLE2=Cool Water
TTITLE3=Mexicali Rose
TTITLE4=I Told You Lately That I Love You?
TTITLE5=Riders In The Sky
TTITLE6=The Everlasting Hills Of Oklahoma
TTITLE7=I Still Do
TTITLE8=Cigareetes  Whusky  And Wild  Wild Women
TTITLE9=Blue Prairie
TTITLE10=Room Full Of Roses
TTITLE11=Starts And Stripes On Iwo Jima
TTITLE12=South of The Border (Down Mexico Way)
TTITLE13=Love Me With All Your Heart
TTITLE14=Maria Elena
TTITLE15=You Belong To My Heart
TTITLE16=My Adobe Hacienda
TTITLE17=Spanish Eyes
TTITLE18=Harbor Lights
TTITLE19=Blue Hawaii
EXTD=
EXTT0=
EXTT1=
EXTT2=
EXTT3=
EXTT4=
EXTT5=
EXTT6=
EXTT7=
EXTT8=
EXTT9=
EXTT10=
EXTT11=
EXTT12=
EXTT13=
EXTT14=
EXTT15=
EXTT16=
EXTT17=
EXTT18=
EXTT19=
PLAYORDER=
